<?xml version="1.0" encoding="UTF-8"?>
<!DOCTYPE svg  PUBLIC '-//W3C//DTD SVG 1.1//EN'  'http://www.w3.org/Graphics/SVG/1.1/DTD/svg11.dtd'>
<svg width="205.2px" height="240px" enable-background="new 0 0 205.196 240" version="1.1" viewBox="0 0 205.196 240" xml:space="preserve" xmlns="http://www.w3.org/2000/svg">
<path d="m181.36 53.415l-62.578-53.415-74.555 11.14-44.222 69.382 23.838 159.48 181.35-27.11-23.837-159.48zm-93.757-7.082c-7.209 1.077-13.919-3.892-14.997-11.094-1.074-7.206 3.896-13.921 11.097-14.997s13.923 3.892 14.997 11.097c1.078 7.203-3.896 13.918-11.097 14.994z" fill="#FEFDEC"/>
<g fill="#EC7D21">
	<path d="m31.743 114.85c-0.277 0.126-0.69 0.244-1.111 0.308-1.277 0.19-3.632 0.107-5.358-2.954l-0.983-1.735-7.92 1.182-1.458 5.714-1.268 0.19 5.123-19.852 0.847-0.128 8.486 14.206c1.198 1.985 1.975 2.597 3.557 2.502l0.085 0.567zm-15.118-4.391l6.929-1.039-4.619-7.695-2.31 8.734z"/>
	<path d="m31.383 104.78c-0.256-1.694-0.71-2.782-2.408-2.532l-0.562 0.088-0.083-0.568 2.541-0.38c1.417-0.213 2.19 0.105 2.595 0.911l0.145-0.022c0.455-0.785 1.467-1.806 3.586-2.124 3.396-0.506 5.557 2.353 6.123 6.17 0.57 3.815-0.657 7.181-4.338 7.73-1.553 0.231-2.743-0.021-3.656-0.32l0.884 5.943-2.545 0.38-2.282-15.276zm3.768 7.823c0.917 0.302 1.962 0.572 2.817 0.448 2.545-0.38 3.157-3.076 2.665-6.325-0.483-3.255-1.851-5.647-4.119-5.309-1.553 0.231-2.276 1.204-2.714 2.136l1.351 9.05z"/>
	<path d="m46.223 102.56c-0.256-1.696-0.711-2.783-2.409-2.535l-0.558 0.089-0.086-0.568 2.541-0.38c1.413-0.21 2.19 0.107 2.599 0.911l0.137-0.021c0.458-0.791 1.466-1.807 3.59-2.124 3.396-0.508 5.549 2.349 6.123 6.17 0.57 3.813-0.661 7.178-4.338 7.728-1.557 0.238-2.747-0.019-3.66-0.318l0.888 5.941-2.545 0.38-2.282-15.273zm3.768 7.82c0.913 0.303 1.967 0.576 2.817 0.448 2.545-0.38 3.152-3.074 2.665-6.325-0.483-3.253-1.859-5.65-4.123-5.313-1.549 0.231-2.276 1.204-2.714 2.14l1.355 9.05z"/>
	<path d="m70.602 109.04l-1.186-1.122-0.136 0.021c-0.463 0.792-1.607 1.829-3.731 2.145-1.549 0.237-4.226-0.233-4.689-3.347-0.471-3.106 2.797-4.462 6.619-5.038l0.847-0.122c-0.591-3.964-1.987-4.615-3.685-4.365-1.558 0.238-2.603 0.969-2.751 2.867l-1.277 0.19c-0.148-0.99-0.269-1.834 0.327-2.65 0.599-0.812 2.4-1.37 4.098-1.624 2.541-0.38 5.073 0.107 5.833 5.202l1.141 7.633-1.41 0.21zm-2.102-6.331l-0.851 0.122c-2.826 0.428-4.354 1.814-4.103 3.506 0.277 1.842 1.677 2.497 3.086 2.285 1.417-0.211 1.996-1.161 2.438-2.095l-0.57-3.818z"/>
	<path d="m74.767 98.296c-0.252-1.698-0.702-2.789-2.4-2.531l-0.281 0.042-0.083-0.568 2.264-0.335c1.413-0.215 2.182 0.104 2.59 0.913l0.141-0.021c0.458-0.795 1.467-1.812 3.165-2.066 0.562-0.084 1.289-0.047 1.756 0.171 0.463 0.219 0.814 0.605 1.182 1.128l-1.008 1.014c-0.504-0.506-1.4-0.655-2.384-0.508-1.132 0.169-2.037 0.88-2.479 1.815l1.562 10.465-2.545 0.38-1.48-9.899z"/>
	<path d="m86.161 94.278l-1.979 0.295-0.169-1.13 1.975-0.295-0.38-2.547 1.169-1.902 1.128-0.174 0.632 4.243 3.396-0.508 0.173 1.13-3.396 0.508 1.306 8.769c0.252 1.696 1.086 2.438 2.363 2.251 0.991-0.149 1.512-0.517 2.032-0.886l0.372 0.527c-0.508 0.504-1.388 1.363-3.371 1.657-1.975 0.293-3.562-0.622-3.941-3.169l-1.31-8.769z"/>
	<path d="m105.94 97.399l-8.428 1.258c0.458 3.109 2.214 5.162 4.619 4.803 1.842-0.275 2.842-1.295 3.619-2.859l0.628 0.345c-0.955 2.309-2.524 3.41-4.644 3.73-3.958 0.586-6.403-2.225-6.974-6.042-0.57-3.822 0.946-7.228 4.479-7.755 3.817-0.57 5.999 1.417 6.589 5.377l0.112 1.143zm-2.665-0.764c-0.458-3.106-1.723-4.798-3.706-4.507-1.698 0.258-2.652 2.566-2.227 5.398l5.933-0.891z"/>
	<path d="m111.04 90.56c0.599-0.812 1.764-1.708 3.466-1.962 1.409-0.21 2.743 0.025 3.685 1.475 0.797-1.423 2.388-2.382 3.946-2.615 2.127-0.318 4.115 0.396 4.726 4.499l1.269 8.486-2.545 0.38-1.277-8.484c-0.417-2.83-1.413-3.691-2.834-3.481-1.128 0.169-2.256 1.349-2.694 2.283 0.211 0.401 0.359 1.388 0.442 1.958l1.272 8.486-2.553 0.38-1.269-8.486c-0.421-2.828-1.417-3.689-2.834-3.479-1.128 0.169-2.012 1.019-2.599 1.917l1.611 10.808-2.545 0.38-1.479-9.898c-0.256-1.698-0.706-2.785-2.404-2.535l-0.566 0.089-0.079-0.57 2.541-0.38c1.417-0.211 2.186 0.107 2.57 0.772l0.15-0.023z"/>
	<path d="m141.41 92.093l-8.428 1.264c0.471 3.109 2.227 5.16 4.623 4.803 1.843-0.277 2.851-1.297 3.627-2.857l0.628 0.341c-0.958 2.31-2.524 3.415-4.647 3.73-3.962 0.593-6.408-2.223-6.974-6.042-0.57-3.817 0.938-7.226 4.479-7.755 3.817-0.57 5.995 1.419 6.589 5.383l0.103 1.133zm-2.653-0.757c-0.467-3.111-1.727-4.803-3.714-4.505-1.689 0.252-2.652 2.566-2.227 5.394l5.941-0.889z"/>
	<path d="m144.3 87.903c-0.256-1.696-0.702-2.785-2.409-2.535l-0.562 0.089-0.087-0.568 2.553-0.38c1.409-0.21 2.177 0.107 2.57 0.771l0.136-0.021c0.603-0.812 1.768-1.708 3.47-1.962 2.4-0.359 4.95 0.271 5.561 4.373l1.276 8.486-2.545 0.38-1.272-8.486c-0.421-2.826-2.127-3.584-3.681-3.351-1.132 0.167-2.016 1.023-2.599 1.921l1.611 10.803-2.545 0.38-1.477-9.9z"/>
	<path d="m159.23 83.357l-1.987 0.297-0.174-1.13 1.987-0.295-0.38-2.543 1.157-1.911 1.132-0.169 0.636 4.243 3.397-0.508 0.165 1.13-3.388 0.506 1.306 8.771c0.256 1.694 1.086 2.442 2.354 2.251 1-0.148 1.521-0.521 2.041-0.886l0.372 0.525c-0.505 0.508-1.389 1.365-3.376 1.659-1.971 0.297-3.553-0.624-3.933-3.169l-1.309-8.771z"/>
	<path d="m174.23 93.842c-2.265 0.334-3.735 0.124-4.554-0.477-0.813-0.604-0.938-1.453-1.152-2.865l0.566-0.085c0.565 1.795 1.999 2.739 4.404 2.38 2.127-0.318 2.986-1.316 2.817-2.444-0.165-1.132-1.12-1.712-2.925-2.165l-1.802-0.459c-2.256-0.558-3.689-1.471-3.971-3.309-0.354-2.402 1.434-3.972 4.119-4.375 2.124-0.316 3.603-0.104 4.413 0.5 0.813 0.599 0.941 1.446 1.152 2.863l-0.562 0.085c-0.558-1.795-2.003-2.733-4.271-2.395-1.83 0.269-2.697 1.262-2.528 2.395 0.145 0.993 1.12 1.683 2.623 2.067l1.798 0.457c2.557 0.626 3.974 1.428 4.271 3.406 0.361 2.405-1.564 3.994-4.398 4.421z"/>
	<path d="m71.358 118.98c-0.256-1.696-0.992-2.748-2.971-2.448l-0.285 0.039-0.078-0.566 1.838-0.272c1.838-0.277 3.065 0.21 4.069 1.127l11.737 10.82-2.095-13.999 1.136-0.169 2.83 18.952-0.566 0.081-14.419-13.31 2.219 14.847-1.132 0.173-2.283-15.275z"/>
	<path d="m95.527 122.16l-1.975 0.295 1.289 8.626-2.549 0.381-2.285-15.278c-0.252-1.696-0.702-2.785-2.396-2.532l-0.57 0.084-0.083-0.564 7.358-1.099c2.404-0.359 7.151-0.491 7.825 4.037 0.487 3.253-1.888 4.766-3.805 5.484l3.71 4.505c1.797 2.188 2.872 2.754 4.305 2.682l0.083 0.568c-0.264 0.182-0.942 0.432-1.652 0.537-1.979 0.295-3.4-0.504-5.702-3.343l-3.553-4.383zm3.788-5.629c-0.442-2.971-3.441-3.675-4.999-3.446-0.707 0.11-1.533 0.374-2.074 0.604l1.12 7.492c0.587 0.056 1.455 0.068 2.161-0.035 1.557-0.232 4.218-1.785 3.792-4.615z"/>
	<path d="m105.54 113.78c-1.083-2.037-1.834-2.617-3.553-2.51l-0.083-0.566c0.145-0.017 0.702-0.159 0.95-0.192 1.586-0.242 3.727-0.244 5.375 2.865l5.424 10.351 1.686-9.417-0.975-1.851c-1.082-2.037-1.834-2.617-3.553-2.506l-0.079-0.568c0.132-0.017 0.694-0.159 0.95-0.198 1.583-0.231 3.722-0.24 5.375 2.871l5.42 10.349 2.71-14.952 1.215-0.182-3.644 19.922-0.57 0.08-5.966-11.281-2.289 12.514-0.566 0.091-7.827-14.82z"/>
</g>
<path d="m203.48 211.6l-1.966-13.175c-0.079-0.111-0.141-0.248-0.318-0.298-0.107 0.075-0.223 0.141-0.396 0.248-0.211-0.173-0.434-0.363-0.735-0.611-0.339 9e-3 -0.772 0.041-1.285 0.066-0.095 0.07-0.248 0.182-0.43 0.33-0.351-0.136-0.723-0.141-1.099 0.033-0.062 0.033-0.145 0.041-0.207 0.037-0.475-0.07-0.854 0.111-1.186 0.43-0.306-0.12-0.355-0.367-0.372-0.615-0.054-0.579-0.219-1.107-0.578-1.657-0.504 0.013-1.065-0.26-1.623 0.111-0.141 0.092-0.376 0.083-0.566 0.066-0.426-0.033-0.822-0.058-1.223 0.198-0.166 0.107-0.409 0.112-0.611 0.149-0.43 0.082-0.872 0.148-1.272 0.215-0.133 0.243-0.231 0.43-0.335 0.628-0.426 0.132-0.971-0.066-1.265 0.499-0.028 0.698 0.257 1.434 0.228 2.261-0.228-0.059-0.393-0.091-0.558-0.133-1.802-0.537-3.599-1.095-5.399-1.636-0.653-0.198-1.314-0.413-1.976-0.62-1.718-0.545-3.449-1.086-5.172-1.636-2.4-0.756-4.793-1.537-7.193-2.297-1.734-0.554-3.479-1.099-5.226-1.657-6.437-2.078-12.882-4.16-19.318-6.259-1.946-0.619-3.871-1.297-5.801-1.934-1.987-0.669-3.97-1.317-5.953-1.982-2.214-0.761-4.425-1.521-6.635-2.272-0.169-0.066-0.327-0.141-0.446-0.198-0.215-0.487-1.45-8.627-1.413-9.176 0.194-0.141 0.372-4e-3 0.549 0.049 1.124 0.368 2.256 0.74 3.388 1.104 2.169 0.702 4.346 1.421 6.528 2.124 1.375 0.454 2.76 0.908 4.14 1.354 3.685 1.215 7.378 2.404 11.068 3.611 2.739 0.884 5.47 1.751 8.205 2.627 1.669 0.529 3.35 1.058 5.019 1.578 2.81 0.889 5.611 1.769 8.425 2.645 1.821 0.57 3.656 1.124 5.486 1.693 1.995 0.62 3.986 1.248 5.99 1.859 2.491 0.761 4.979 1.524 7.474 2.289 2.161 0.661 4.338 1.313 6.511 1.967 1.698 0.512 3.396 0.999 5.082 1.495l-0.041-0.272c-0.277-0.091-0.554-0.165-0.831-0.252-2.719-0.806-5.429-1.637-8.146-2.45-1.359-0.405-2.715-0.822-4.065-1.235-2.987-0.904-5.975-1.813-8.957-2.723-0.909-0.28-1.826-0.554-2.743-0.834-1.826-0.579-3.648-1.165-5.479-1.744-2.888-0.917-5.784-1.813-8.672-2.718-1.338-0.422-2.673-0.848-3.999-1.265-3.892-1.231-7.775-2.462-11.667-3.71-4.656-1.487-9.308-2.991-13.964-4.512-2.9-0.934-5.784-1.917-8.676-2.867-0.228-0.074-0.459-0.173-0.723-0.272-0.161-0.678-0.256-1.289-0.302-1.941 0.364-0.1 0.645 0.05 0.926 0.141 1.355 0.454 2.71 0.917 4.069 1.371 1.855 0.611 3.71 1.211 5.557 1.818 1.661 0.537 3.309 1.078 4.958 1.611 1.343 0.438 2.689 0.892 4.037 1.321 3.511 1.132 7.015 2.289 10.522 3.421 1.719 0.554 3.446 1.1 5.164 1.637 1.194 0.375 2.375 0.734 3.561 1.115 2.045 0.645 4.086 1.306 6.123 1.949 2.384 0.744 4.768 1.492 7.16 2.235 1.995 0.624 3.99 1.228 5.994 1.847 2.475 0.752 4.945 1.524 7.42 2.272 1.665 0.513 3.33 1 4.986 1.512 2.487 0.761 4.962 1.513 7.449 2.265l-0.041-0.281c-1.761-0.528-3.524-1.049-5.276-1.578-2.503-0.76-5.011-1.533-7.519-2.306-1.434-0.43-2.859-0.859-4.276-1.301-2.697-0.814-5.388-1.648-8.081-2.475-1.165-0.364-2.338-0.731-3.503-1.1-2.508-0.769-5.012-1.562-7.516-2.338-1.619-0.521-3.251-1.033-4.862-1.545-1.599-0.504-3.189-0.992-4.776-1.496-2.813-0.909-5.635-1.81-8.449-2.718-1.611-0.513-3.202-1.025-4.809-1.562-4.342-1.441-8.685-2.867-13.026-4.292-1.735-0.583-3.475-1.145-5.202-1.706-0.231-0.066-0.438-0.166-0.686-0.257-0.112-0.735-0.228-1.438-0.339-2.132-0.678-0.347-1.256-0.165-1.789 0.107-0.12 0.318-0.045 0.579 0.033 0.835 0.182 0.463 0.165 0.934 0.087 1.454-0.248 0.182-0.533 0.355-0.789 0.57-0.327 0.269-0.645 0.293-1.042 0.157-1.322-0.455-2.66-0.868-3.986-1.306-0.153-0.058-0.298-0.116-0.442-0.182-0.079-0.149-0.161-0.294-0.24-0.446-0.599-0.244-1.124-0.033-1.689 0.173 0.021 0.364 0.041 0.678 0.066 0.976-0.107 0.099-0.165 0.19-0.252 0.239-1.64 1.161-3.268 2.33-4.92 3.454-2.111 1.438-4.247 2.834-6.367 4.247-1.384 0.926-2.764 1.871-4.147 2.793-2.086 1.371-4.181 2.747-6.263 4.114-1.628 1.079-3.251 2.157-4.871 3.239-0.603 0.401-1.21 0.81-1.822 1.198-1.322 0.859-2.648 1.723-3.966 2.578-1.504 0.983-2.983 1.983-4.487 2.958-2.247 1.454-4.503 2.9-6.75 4.346-2.024 1.306-4.053 2.611-6.077 3.917-0.207 0.124-0.426 0.223-0.673 0.355-0.058-0.174-4.218-23.632-4.491-25.26-0.173-1.049-0.322-2.103-0.487-3.156-0.173-1.107-0.054-2.193 0.347-3.239 0.339-0.908 3.115-7.366 3.243-8.139-0.273-0.264-0.483-0.565-0.81-0.578-0.632-0.024-1.272-0.182-1.909 0.1-0.182-0.066-0.38-0.133-0.586-0.224-0.099-0.38-0.174-0.731-0.26-1.111 0.145-0.062 0.256-0.111 0.368-0.145 0.462-0.141 0.913-0.276 1.375-0.43 0.215-0.058 0.43-0.161 0.508-0.496-0.091-0.124-0.203-0.297-0.272-0.363-0.459-0.082-0.822-0.141-1.244-0.215-0.384 0.256-0.814 0.182-1.269-0.024-0.024-0.091-0.037-0.174-0.074-0.248s-0.095-0.128-0.173-0.239c-0.157 0.223-0.277 0.392-0.397 0.554-0.285-0.087-0.549-0.183-0.859-0.281-0.058-0.19-0.128-0.413-0.215-0.707 0.219-0.058 0.38-0.107 0.545-0.148 0.669-0.178 1.339-0.335 2-0.533 0.272-0.074 0.545-0.165 0.661-0.413 0.062-0.38-0.293-0.413-0.388-0.569-0.054-0.348-0.095-0.637-0.145-0.946-0.149-0.096-0.285-0.178-0.512-0.318 0.033 0.467 0.062 0.851 0.083 1.186-0.5 0.285-0.909-0.058-1.347-0.091-0.021-0.054-0.05-0.137-0.087-0.235-0.083 0.174-0.145 0.318-0.211 0.463-0.479 0.024-0.929 0.049-1.388 0.065-0.066-0.148-0.128-0.26-0.153-0.38-0.148-0.652-0.285-1.306-0.405-1.975-0.31-1.789-0.607-3.562-0.921-5.346-0.045-0.273-0.157-0.537-0.248-0.806-0.153-0.393-0.351-0.772-0.475-1.178-0.417-1.351-0.471-2.752-0.703-4.136-0.161-0.987-0.244-2.008-0.368-3.003-0.021-0.157-0.074-0.298-0.116-0.463-0.21-9e-3 -0.38-0.017-0.574-0.021 0 0.156-0.017 0.285 0 0.393 0.161 1.106 0.355 2.206 0.508 3.321 0.149 1.074 0.24 2.173 0.401 3.264 0.083 0.578 0.083 1.157-0.013 1.739-0.07 0.385-0.128 0.781-0.083 1.161 0.166 1.586 0.38 3.164 0.574 4.747 0.104 0.88 0.194 1.764 0.281 2.64 8e-3 0.095-8e-3 0.174-0.017 0.298-0.434 0.31-0.938 0.239-1.372 0.322-0.492-0.405-0.405-0.983-0.616-1.454 0.049 0.528 0.165 1.065-0.293 1.562-0.079-0.409-0.136-0.769-0.21-1.132-0.087-0.331-0.029-0.703-0.228-1.004-0.033 4e-3 -0.083 8e-3 -0.12 0.012 0.087 0.702 0.178 1.421 0.269 2.173-0.182 0.075-0.327 0.141-0.442 0.19-0.322-0.322-0.107-0.776-0.434-1.058-0.26 0.446 0.017 0.867-0.054 1.248-0.12 0.231-0.446 0.33-0.322 0.686 0.145 0.111 0.318 0.231 0.492 0.339 0.079 0.521 0.157 1.016 0.231 1.532-0.219-4e-3 -0.396 0.013-0.595 0.013-0.025 0.132-0.046 0.265-0.066 0.347-0.194 0.281-0.591 0.343-0.504 0.818 0.735 0.422 1.603 0.083 2.409 0.289 0.037 0.389 0.132 0.744 4e-3 1.115-0.417 0.19-0.814 0.43-1.293 0.438-0.785 0.033-1.24 0.521-1.657 1.148 0.087 0.141 0.157 0.306 0.264 0.438 0.529 0.687 4.747 6.008 5.371 6.854 0.752 1.028 1.074 2.227 1.21 3.482 0.079 0.728 0.157 1.471 0.235 2.206 0.029 0.24 2.95 27.681 2.983 28.176-0.128 0.075-0.19 0.141-0.264 0.19-1.355 0.868-2.714 1.735-4.078 2.595-1.665 1.049-3.338 2.09-5.007 3.136-0.145 0.082-0.302 0.128-0.529 0.235-0.042-0.261-0.066-0.43-0.087-0.599-0.095-0.616-0.194-1.228-0.277-1.847-0.037-0.339-0.182-0.596-0.533-0.777-0.211 0.1-0.451 0.198-0.657 0.298-0.314-0.104-0.338-0.339-0.363-0.562-0.037-0.347-0.194-0.611-0.57-0.776-0.26 0.033-0.574 0.058-0.93 0.087-0.074-0.335-0.14-0.632-0.207-0.93-0.281 0.058-0.508 0.116-0.752 0.165 0.013 0.322 0.029 0.637 0.042 0.976-0.748 0.182-1.438 0.371-2.173 0.186-0.409 0.318-0.867 0.409-1.351 0.426-0.153 4e-3 -0.289 0.028-0.426 0.062-0.413 0.079-0.822 0.178-1.248 0.261-0.851 0.165-1.702 0.33-2.553 0.483-0.5 0.082-1.004 0.227-1.504 0.194-0.136-0.174-0.248-0.306-0.376-0.472-0.153 0.021-0.318 0.05-0.475 0.066-0.033 0.198-0.074 0.355-0.116 0.57-0.132-0.182-0.223-0.322-0.326-0.471-0.227 0.021-0.43 0.032-0.682 0.058-0.017 0.189-0.025 0.334-0.045 0.5-0.128-0.145-0.265-0.261-0.438-0.435-0.079 0.224-0.149 0.401-0.203 0.57-0.083 0-0.128 0.017-0.136 0-0.103-0.173-0.194-0.376-0.31-0.628-0.166 0.05-0.331 0.116-0.483 0.174 0.049 0.413 0.049 0.413-0.066 0.645-0.091-0.215-0.178-0.413-0.264-0.611-0.451 0.132-0.26 0.491-0.368 0.719-0.211 0.521-0.926 0.289-1.165 0.826 8e-3 0.099 0.017 0.231 0.012 0.38 4e-3 0.153 8e-3 0.306 8e-3 0.455-0.256 0.23-0.487 0.454-0.744 0.677 0.087 0.314-0.297 0.554-0.111 0.909 0.384-0.037 0.545-0.463 0.909-0.487 0.182 0.537 0.153 0.636-0.215 0.938-0.169 0.12-0.355 0.231-0.504 0.385-0.157 0.14-0.166 0.297 0.062 0.43 0.277-0.157 0.545-0.339 0.896-0.546 0.037 0.306 0.058 0.5 0.079 0.719-0.265 0.19-0.5 0.372-0.731 0.55-0.182 0.145-0.322 0.293-0.149 0.55 0.087 0 0.174 0 0.26-9e-3 0.104-0.024 0.207-0.045 0.29-0.066 0.153-0.269 0.153-0.269 0.417-0.404 0.033 0.215 0.062 0.417 0.083 0.554-0.231 0.495-0.934 0.504-0.958 1.177 0.252-0.012 0.446-0.012 0.604-0.012 0.178-0.182 0.148-0.45 0.479-0.446 0.021 0.174 0.042 0.355 0.058 0.487-0.298 0.396-0.793 0.479-0.996 0.942 0.083 0.252 0.177 0.528 0.285 0.817-0.049 0.091-0.099 0.224-0.153 0.339 0.128 0.256 0.265 0.492 0.372 0.715-0.087 0.157-0.161 0.293-0.244 0.459 0.14 0.082 0.272 0.173 0.4 0.264-0.07 0.091-0.145 0.174-0.248 0.306 0.111 0.735 0.227 1.504 0.343 2.265-0.136 0.119-0.215 0.223-0.322 0.272-1.368 0.851-2.735 1.702-4.115 2.545-0.186 0.107-0.384 0.198-0.591 0.235-0.079 0.013-0.166 0.029-0.244 0.046l1.9 12.708c25.588-3.849 142.24-21.251 178.38-26.642zm-62.202 0.921c-0.632 0.529-1.4 0.405-2.115 0.496-0.421-0.504-0.21-1.124-0.496-1.615-0.38-0.137-0.74 4e-3 -1.086 0.087-0.343 0.099-0.674 0.228-1.091 0.165-0.24-0.413-0.178-0.893-0.273-1.438 1.801 0.504 3.446 1.178 5.177 1.756-0.041 0.219-0.074 0.367-0.116 0.549zm2.359-1.686c-0.281 0.344-0.487 0.604-0.689 0.835-0.451 0.182-0.868 0.174-1.31 0.033-1.681-0.587-3.363-1.145-5.04-1.711-0.124-0.049-0.252-0.115-0.393-0.173-0.289-0.728-0.207-1.537-0.492-2.272-0.826-0.165-1.607 0.326-2.429 0.041-0.091-0.256-0.182-0.537-0.281-0.826-0.153-0.017-0.273-0.05-0.384-0.041-0.673 0.074-1.343 0.173-2 0.256-0.124 0.017-0.252 9e-3 -0.372 9e-3 -0.334 0-0.669-0.017-0.987 0.182-0.095 0.054-0.26 0.045-0.372 0.062-0.173-0.31-0.624-2.499-0.615-2.958 0.079 0.013 0.169-8e-3 0.239 0.021 1.735 0.607 3.475 1.224 5.21 1.826 3.131 1.083 6.267 2.132 9.399 3.214 0.673 0.236 1.33 0.472 2.003 0.711 0.203 0.066 0.414 0.133 0.364 0.521-0.652 0.097-1.28 0.196-1.851 0.27zm2.471-0.33c-0.091-0.033-0.173-0.05-0.264-0.078 0.012-0.029 0.012-0.062 0.016-0.087 0.091 0 0.178 0.017 0.273 0.017-0.012 0.061-0.017 0.09-0.025 0.148zm0.959 0.669c-0.277-0.074-0.351-0.215-0.269-0.528 0.24 0.078 0.426 0.132 0.71 0.223-0.202 0.149-0.33 0.231-0.441 0.305zm7.395-5.305c0.066 0.311 0.1 0.633 0.141 0.93-0.132 0.12-0.244 0.219-0.393 0.331 0.157 0.078 0.281 0.136 0.459 0.235 0.194 1.065 0.347 2.152 0.5 3.271-0.161 0.066-0.269 0.145-0.384 0.174-0.917 0.207-2.933 0.454-3.321 0.4-0.281-0.26-0.248-0.623-0.269-0.982 0.103-0.124 0.202-0.244 0.301-0.368-0.078-0.529-0.157-1.058-0.231-1.562-0.161-0.107-0.285-0.202-0.467-0.322-0.062-0.413-0.132-0.876-0.207-1.38-0.235 0.189-0.153 0.363-0.132 0.521 0.169 1.178 0.343 2.354 0.516 3.532 0.025 0.194 0.033 0.4 0.062 0.674-0.272 0.017-0.496 0.033-0.723 0.024-0.1-0.132-0.182-0.265-0.29-0.413-0.483 0.05-0.909-0.165-1.355-0.33-0.211-0.092-0.442-0.092-0.673-0.107-0.269-0.033-0.566-9e-3 -0.839-0.083-0.454-0.128-0.896-0.326-1.363-0.491-0.289-0.913-0.269-1.889-0.516-2.798-0.042 0-0.087 9e-3 -0.124 5e-3 -4e-3 0.136-0.029 0.26-8e-3 0.376 0.066 0.569 0.153 1.123 0.235 1.693 0.025 0.161 0.033 0.331 0.058 0.587-0.265-0.05-0.467-0.07-0.666-0.124-1.892-0.652-3.784-1.306-5.681-1.954-2.747-0.954-5.482-1.896-8.246-2.847-0.599-0.206-1.207-0.413-1.801-0.636-0.248-0.087-0.483-0.207-0.744-0.306-0.141-0.596-0.306-1.161-0.393-1.728-0.343-2.14-0.653-4.271-0.975-6.42-0.021-0.132-0.012-0.277-0.024-0.405 0.223-0.124 0.396 0 0.57 0.054 1.318 0.45 2.624 0.896 3.929 1.331 3.292 1.111 6.589 2.218 9.882 3.325 1.553 0.521 3.09 1.041 4.635 1.562 2.285 0.769 4.578 1.521 6.858 2.281 0.628 0.214 1.235 0.454 1.917 0.702-0.313 0.414-0.338 0.811-0.238 1.248zm2.879-2.825c-0.157 0.156-0.314 0.322-0.479 0.495-8e-3 0.157-0.024 0.314-0.033 0.487-0.141 0.075-0.302 0.137-0.451 0.215-0.338 0.389-0.781 0.314-1.173 0.199-1.748-0.542-3.482-1.12-5.213-1.686-2.723-0.909-5.445-1.814-8.164-2.723-1.619-0.542-3.227-1.079-4.842-1.624-1.322-0.446-2.644-0.889-3.974-1.339-1.925-0.661-3.851-1.321-5.78-1.995-0.124-0.046-0.219-0.095-0.322-0.137-0.211-0.446-0.479-2.197-0.405-2.693 0.161 0.041 0.314 0.05 0.459 0.1 1.214 0.417 2.446 0.843 3.668 1.256 0.467 0.161 0.93 0.347 1.405 0.504 1.636 0.545 3.284 1.107 4.933 1.66 1.905 0.637 3.834 1.281 5.743 1.926 2.099 0.698 4.198 1.409 6.296 2.099 1.686 0.57 3.359 1.124 5.04 1.693 0.917 0.314 1.826 0.649 2.776 0.976 0.058 0.132 0.112 0.265 0.186 0.454 0.289-0.017 0.558-0.033 0.838-0.041 4e-3 8e-3 8e-3 0.017 0.017 0.037-0.165 0.041-0.347 0.087-0.525 0.137zm2.318-0.405c-0.227 0.033-0.458 0.066-0.677 0.1-4e-3 -9e-3 -4e-3 -0.025-8e-3 -0.042 0.227-0.024 0.455-0.058 0.682-0.091 3e-3 8e-3 3e-3 0.025 3e-3 0.033zm3.512 5.065c-0.186 0.033-0.363 0.058-0.624 0.095-0.028-0.239-0.054-0.384-0.082-0.57 0.454-0.028 0.813 0.219 1.219 0.359-0.166 0.033-0.34 0.083-0.513 0.116zm3.181-1.537c-0.19-0.091-0.22-0.446-0.554-0.269-0.046 0.095-0.116 0.239-0.17 0.372-0.351 0.078-0.689 0.152-1.049 0.235 0.028 0.372 0.054 0.632 0.082 1-0.821-0.281-1.595-0.422-2.347-0.831 0.215-0.276 0.393-0.483 0.579-0.727-0.396-0.442-0.368-0.979-0.413-1.591 0.182 0.029 0.317 0.033 0.434 0.074 1.145 0.363 2.293 0.731 3.433 1.111 0.17 0.062 0.393 0.079 0.43 0.389-0.136 0.067-0.28 0.146-0.425 0.237zm0.863-0.265c-0.05-0.013-0.104-0.013-0.153-0.024 5e-3 -0.017 9e-3 -0.041 0.017-0.054 0.042 4e-3 0.087 0.013 0.128 0.028 5e-3 0.026 8e-3 0.043 8e-3 0.05zm5.871 1.943c-0.223 0.107-0.454 0.219-0.669 0.33-0.228-0.198-0.256-0.389-0.141-0.661 0.261 0.074 0.533 0.132 0.798 0.224 4e-3 0.032 4e-3 0.065 0.012 0.107zm5.949-1.059c-0.119 0.05-0.252 0.079-0.408 0.124-0.207 0.344-0.546 0.496-0.93 0.587-0.459 0.107-0.674-0.215-0.922-0.537-0.132 0.244-0.252 0.438-0.363 0.645-0.393-0.012-0.789 0.256-1.182-0.107 0.095-0.099 0.174-0.202 0.269-0.272 0.868-0.578 1.739-1.141 2.615-1.719 0.228-0.137 0.459-0.298 0.719-0.074 0.194 0.432 0.26 0.866 0.202 1.353zm2.083 0.166c-0.194 0.065-0.455 0-0.674-0.042-0.302-0.049-0.591-0.124-0.946-0.189-0.041-0.513-0.479-0.967-0.119-1.599 1.053 0.297 2.086 0.574 3.09 0.941 0.083 0.037 0.132 0.137 0.252 0.269-0.571 0.232-1.075 0.463-1.603 0.62zm1.941-0.727c0.261 0.07 0.421 0.116 0.611 0.165-0.396 0.198-0.396 0.198-0.611-0.165zm4.26-2.305l-5e-3 -9e-3c-0.049-0.058-0.099-0.137-0.14-0.198-0.521-0.058-0.57 0.508-0.905 0.595-0.228 0.537 0.104 0.9 0.235 1.355-0.099 0.082-0.219 0.239-0.376 0.347-0.128 0.091-0.293 0.182-0.434 0.161-0.454-0.045-0.909-0.115-1.388-0.334-0.124-0.596-0.285-1.215-0.376-1.835-0.1-0.624-0.141-1.264-0.203-1.925 0.418-0.074 0.794 0.161 1.19 0.264 0.413 0.112 0.817 0.253 1.23 0.381 0.397 0.115 0.802 0.248 1.174 0.363 0.13 0.322 0.262 0.587-2e-3 0.835zm-62.215-23.558c2.07 0.69 4.131 1.393 6.193 2.091 1.723 0.582 3.433 1.156 5.148 1.727 1.983 0.669 3.97 1.326 5.953 1.991 1.186 0.396 2.375 0.81 3.569 1.215 3.012 0.983 6.036 1.967 9.056 2.95 1.529 0.495 3.062 1.012 4.598 1.495 2.532 0.818 5.062 1.628 7.598 2.438 1.715 0.545 3.445 1.091 5.164 1.628 1.674 0.528 3.351 1.065 5.024 1.586 2.396 0.752 4.805 1.504 7.213 2.256 1.041 0.331 2.095 0.653 3.14 0.983 0.187 0.066 0.359 0.137 0.566 0.215 0.066 0.438 0.128 0.867 0.194 1.31-0.252 0.194-0.483 0.385-0.761 0.6-0.182-0.042-0.388-0.075-0.586-0.137-1.05-0.318-2.111-0.624-3.148-0.971-0.976-0.322-1.963-0.562-2.934-0.889-0.987-0.326-1.995-0.595-2.999-0.904-0.979-0.306-1.954-0.628-2.934-0.942-2.917-0.917-5.821-1.83-8.729-2.751-2.45-0.785-4.899-1.554-7.346-2.351-5.181-1.665-10.357-3.33-15.534-5.021-3.14-1.024-6.268-2.065-9.395-3.106-1.751-0.587-3.495-1.173-5.243-1.76-1.157-0.396-2.313-0.785-3.474-1.182-0.169-0.058-0.335-0.133-0.542-0.207-0.173-0.801-0.264-1.562-0.38-2.412 0.259 0.058 0.428 0.091 0.589 0.148zm-0.132 2.636c0.153 0.013 0.281 9e-3 0.38 0.05 2.851 0.95 5.685 1.893 8.527 2.851 2.376 0.793 4.735 1.595 7.11 2.38 0.789 0.272 1.59 0.508 2.375 0.76 4.949 1.636 9.907 3.268 14.856 4.892 2.276 0.735 4.562 1.463 6.842 2.182 1.81 0.578 3.619 1.132 5.433 1.71 2.599 0.818 5.201 1.645 7.8 2.454 1.459 0.467 2.921 0.9 4.375 1.335 0.207 0.062 0.393 0.148 0.566 0.219 0.211 0.521 0.628 3.354 0.562 3.817-0.087 0-0.173 0.033-0.252 8e-3 -1.479-0.363-2.949-0.735-4.437-1.106-0.302-0.835-0.248-1.702-0.591-2.513-0.021 0.107-0.059 0.215-0.042 0.318 0.054 0.492 0.137 0.979 0.211 1.475 0.017 0.183 0.033 0.381 0.046 0.604-1.632 1.058-3.206 2.169-4.958 3.14-0.524-0.165-1.082-0.33-1.652-0.495-0.116-0.529-0.203-1.021-0.311-1.492-0.14-0.021-0.219-0.054-0.301-0.045-0.748 0.066-1.492 0.078-2.223 0.231-0.772 0.136-1.467 0.024-2.186-0.331-0.091-0.14-0.19-0.297-0.339-0.545-0.058 0.186-0.083 0.289-0.116 0.389h-8e-3c-1.396-0.435-2.801-0.876-4.206-1.322-0.087-0.331-0.161-0.604-0.248-0.893-0.21-0.115-0.413-0.219-0.615-0.335-0.347 5e-3 -0.702-4e-3 -1.054-0.012-8e-3 -0.033-0.021-0.05-0.024-0.07 0.157-0.091 0.313-0.17 0.5-0.269-0.046-0.359-0.311-0.389-0.558-0.405-0.781 0.339-1.599 0.372-2.396 0.479-0.137 0.017-0.293-0.033-0.417-0.074-1.483-0.479-2.975-0.954-4.454-1.446-2.755-0.926-5.507-1.843-8.267-2.768-1.913-0.645-3.826-1.306-5.743-1.942-2.322-0.784-4.636-1.553-6.958-2.334-1.818-0.607-3.619-1.243-5.424-1.863-0.124-0.05-0.227-0.104-0.376-0.174-0.042-0.165-0.104-0.351-0.132-0.537-0.128-0.793-0.227-1.578-0.368-2.375-0.07-0.413-0.169-0.831-0.26-1.243-0.017-0.092-0.045-0.174-0.045-0.257-0.062-1.354-0.483-2.644-0.607-3.991-7e-3 -0.135-7e-3 -0.275-0.015-0.457zm1.834 27.912c-0.752 0.441-1.62 0.454-2.375 0.925-8e-3 0.934 0.331 1.872 0.339 2.859-0.26 0.033-0.496 0.082-0.76 0.115-0.111-0.231-0.211-0.441-0.318-0.661-0.115-0.065-0.244-0.132-0.45-0.247 0.26-0.083 0.458-0.149 0.645-0.228 0.248-0.438-0.19-0.724-0.157-1.161-0.781 0.037-1.5 0.066-2.276 0.1-0.05-0.194-0.132-0.389-0.161-0.596-0.132-0.817-0.24-1.648-0.376-2.454-0.066-0.413-0.169-0.801-0.248-1.21-0.045-0.219-0.066-0.442-0.104-0.682 0.273-0.186 0.5-0.348 0.74-0.487 0.648-0.401 1.297-0.802 1.946-1.207 0.207-0.124 0.409-0.182 0.657-0.107 0.682 0.24 1.368 0.483 2.054 0.728 0.078 0.017 0.157 0.074 0.293 0.148 0.341 1.363 0.303 2.785 0.551 4.165zm-6.296-3.598c-0.19-0.967-0.314-1.83-0.417-2.789 1.078 0.322 2.037 0.702 3.037 1.066-0.186 0.355-0.545 0.43-0.802 0.603-0.269 0.215-0.57 0.364-0.847 0.546-0.285 0.164-0.574 0.329-0.971 0.574zm3.487-1.74c0.682-0.396 1.202-0.835 1.896-1.128 0.186 0.615 0.228 1.193 0.314 1.917-0.776-0.277-1.433-0.508-2.21-0.789zm1.669-3.065c0.066 0.475 0.14 0.941 0.215 1.454-0.471 0.313-0.909 0.595-1.355 0.88-0.955 0.591-0.955 0.582-2.004 0.211-0.579-0.203-1.169-0.405-1.744-0.628-0.248-0.083-0.491-0.211-0.739-0.322-0.05-0.224-0.099-0.43-0.132-0.637-0.219-1.421-0.417-2.851-0.645-4.255-0.148-0.917-0.339-1.822-0.496-2.727-0.042-0.207-0.042-0.414-0.058-0.67 1.161-0.719 2.318-1.438 3.491-2.182 0.756 0.281 1.487 0.546 2.26 0.811 0.091 0.549 0.19 1.065 0.269 1.586 0.314 2.158 0.624 4.322 0.938 6.479zm-7.519-10.263c0.467 0.165 0.838 0.298 1.214 0.43 0.409 0.137 0.81 0.248 1.21 0.396 0.376 0.133 0.748 0.289 1.145 0.438-0.533 0.5-2.632 1.751-3.094 1.842-0.211-0.998-0.318-1.991-0.475-3.106zm6.222 1.834c-0.665-0.239-1.194-0.43-1.731-0.599 0.248-0.335 1.049-0.847 1.583-0.996 0.177 0.48 0.053 0.984 0.148 1.595zm-0.174-2.015c-0.69 0.43-1.331 0.826-2.016 1.264-1.343-0.467-2.689-0.941-4.082-1.412-0.442-2.628-0.81-5.214-1.206-7.825 1.297-0.913 2.615-1.719 3.904-2.574 0.657 0.157 1.285 0.376 1.93 0.698 0.516 3.255 0.987 6.511 1.47 9.849zm-7.56-9.706c-0.095-0.606-0.182-1.219-0.277-1.847-0.017-0.141-0.017-0.289-0.037-0.541 0.748 0.111 1.372 0.476 2.028 0.665 0.682 0.198 1.322 0.463 2.107 0.739-1.227 0.807-2.326 1.55-3.524 2.261-0.07-0.17-0.128-0.265-0.153-0.389-0.053-0.297-0.099-0.586-0.144-0.888zm6.007-0.582c-0.524 0-0.913-0.235-1.363-0.438 0.327-0.404 0.649-0.628 1.26-0.859 0.033 0.425 0.062 0.822 0.103 1.297zm-1.929-13.133c0.186 0.277 0.227 0.55 0.149 0.913-0.355-0.107-0.682-0.202-1.066-0.33 0.289-0.311 0.561-0.489 0.917-0.583zm-6.338-0.926c0.124 5e-3 0.215-0.021 0.285 5e-3 1.409 0.479 2.817 0.962 4.222 1.45 0.012-5e-3 0.017 0.021 0.033 0.037-0.231 0.306-3.26 2.297-3.875 2.52-0.042-0.099-0.103-0.169-0.124-0.256-0.182-1.24-0.359-2.484-0.541-3.756zm0.649 4.512c1.454-1.012 2.95-1.93 4.458-2.884 0.496 0.161 0.971 0.314 1.479 0.483 0.516 3.445 1.021 6.817 1.524 10.196-0.128 0.116-0.228 0.248-0.355 0.331-0.31 0.21-0.628 0.396-0.93 0.619-0.239 0.141-0.483 0.224-0.764 0.128-1.347-0.479-2.698-0.962-4.049-1.445-0.033-0.013-0.058-0.046-0.14-0.12-0.571-2.354-0.806-4.825-1.223-7.308zm-86.321 52.324c-1.297 0.404-2.64 0.545-3.995 0.71 0.512-0.512 1.182-0.784 1.776-1.156 0.603-0.393 1.235-0.752 1.876-1.124 0.26 0.372 0.26 0.372 0.343 1.57zm0.888-1.256c-0.037 0.024-0.083 0.058-0.157 0.107-0.083-0.231-0.157-0.43 0.066-0.637 0.186 0.171 0.128 0.348 0.091 0.53zm-0.281-1.682c0.037 4e-3 0.066 0.029 0.099 0.045-0.029 0.079-0.054 0.141-0.075 0.224-0.041-9e-3 -0.078-0.033-0.111-0.041 0.029-0.075 0.062-0.146 0.087-0.228zm-0.07-1.07c0.091 0.281 0.111 0.438-0.066 0.604-0.162-0.207-0.046-0.364 0.066-0.604zm-0.219-0.57c-0.215-0.173-0.19-0.363-0.074-0.652 0.223 0.255 0.247 0.429 0.074 0.652zm-0.302-1.066l-4e-3 -9e-3c-0.017-0.26-0.103-0.549 0.178-0.768 0.215 0.389 0.19 0.463-0.174 0.777zm0.157-1.38c-0.103 0.058-0.215 0.152-0.331 0.228-8e-3 -0.277-0.161-0.574 0.174-0.781 0.203 0.136 0.157 0.326 0.157 0.553zm1.277-8.609c-4e-3 -0.055-4e-3 -0.096-0.013-0.141 0.013-9e-3 0.029-0.017 0.045-0.017 0.013 0.054 0.021 0.095 0.029 0.148-0.016 0.01-0.041 1e-3 -0.061 0.01zm7.705 10.601c4e-3 9e-3 0.017 0.024 0.021 0.029-0.042 0.021-0.083 0.037-0.124 0.058 0.033-0.03 0.065-0.067 0.103-0.087zm-1.141-2.199l8e-3 0.017h-0.033l0.025-0.017zm0.711 4.747c-4e-3 0-0.038 9e-3 -0.042 5e-3 -8e-3 -0.025-4e-3 -0.062-8e-3 -0.096 0.029 0.013 0.058 0.017 0.083 0.013-4e-3 0.034-0.017 0.058-0.033 0.078zm-0.14-1.176c-0.042 0-0.066-9e-3 -0.104-0.013 4e-3 -0.017 4e-3 -0.046 0-0.054 0.037 8e-3 0.079 4e-3 0.112 0.021-4e-3 0.02-4e-3 0.046-8e-3 0.046zm-0.075-1.158c-0.066 0-0.132-8e-3 -0.203-0.017v-0.05c0.066-0.012 0.132-0.024 0.203-0.032v0.099zm0.934 2.244c-0.017-0.028-0.025-0.062-0.042-0.111 0.054-0.017 0.107-0.021 0.166-0.041 8e-3 0.033 0.016 0.058 0.024 0.082-0.053 0.025-0.099 0.045-0.148 0.07zm-0.268-1.162c-4e-3 -0.032-0.013-0.074-0.017-0.107 0.087 0 0.173-0.024 0.256-0.032 4e-3 0.021 8e-3 0.045 0.013 0.062-0.087 0.029-0.174 0.053-0.252 0.077zm1.069 1.009c-4e-3 -0.025-8e-3 -0.066-8e-3 -0.1 0.058-8e-3 0.112-0.017 0.169-0.024 8e-3 0.024 0.013 0.058 0.021 0.074-0.066 0.017-0.124 0.034-0.182 0.05zm-0.665-4.702c-8e-3 -0.037-0.012-0.074-0.021-0.115 0.074 0 0.14-0.017 0.215-0.017 4e-3 0.033 0.012 0.058 0.016 0.091-0.073 0.013-0.144 0.025-0.21 0.041zm4.756-10.724l-0.017-0.021 0.033 4e-3 -0.016 0.017zm7.081 19.905c-0.223-0.107-0.223-0.252-0.157-0.472 0.227 0.116 0.281 0.248 0.157 0.472zm3.685-0.67c-0.231 0.033-0.413 0.062-0.616 0.091-0.091-0.178-0.169-0.347-0.285-0.582-0.673-0.062-1.355 0.202-2.066 0.119 0.847-0.504 1.702-0.999 2.599-1.536 0.302 0.644 0.393 1.256 0.368 1.908zm5.115-2.669c-0.095 0.203-0.186 0.389-0.272 0.57-0.248 0.033-0.471 0.066-0.674 0.1-0.326-0.331-0.111-0.761-0.281-1.116-0.161-0.032-0.326-0.074-0.558-0.132-8e-3 -0.272-0.017-0.537-0.021-0.867 0.476-0.285 0.958-0.57 1.458-0.868 0.124 0.818 0.232 1.553 0.348 2.313zm-0.331-2.76c-0.248 0.17-0.458 0.331-0.682 0.463-0.256 0.165-0.517 0.314-0.781 0.471-0.579 0.327-0.71 0.352-1.355 0.248-0.116 0.05-0.236 0.091-0.327 0.133-0.256-0.124-0.492-0.248-0.715-0.348-0.318 0.207-0.318 0.207-0.553 0.835 0.136 0.322 0.521 0.017 0.702 0.272 0.042 0.272-0.21 0.326-0.372 0.43-0.806 0.487-1.62 0.958-2.425 1.43-0.285 0.189-0.566 0.363-0.855 0.528-0.136 0.083-0.285 0.141-0.483 0.24-0.054-0.559-0.095-1.041-0.161-1.521-0.066-0.487-0.079-0.992-0.455-1.434-0.157-0.029-0.351-0.062-0.57-0.087 1.434-0.893 2.834-1.78 4.247-2.645 1.413-0.859 2.83-1.719 4.313-2.619 0.34 1.266 0.232 2.448 0.472 3.604zm-0.921-8.667c0.083 0.652 0.174 1.297 0.24 1.958 0.095 0.893 0.169 1.776 0.264 2.76-3.144 1.999-6.35 3.834-9.519 5.759-0.256-0.603-0.921-5.568-0.872-6.465 3.14-1.979 6.325-3.995 9.556-5.995 0.054 0.107 0.124 0.169 0.128 0.239 0.071 0.583 0.132 1.165 0.203 1.744zm-0.343-2.347c-0.463 0.43-9.089 5.751-9.609 5.916-0.194-0.479-0.599-3.23-0.554-3.806 3.193-2.045 6.412-4.118 9.705-6.168 0.384 0.694 0.21 1.413 0.318 2.082 0.107 0.645 0.297 1.315 0.14 1.976zm-6.21-50.163c-0.401 0.054-0.834 0.123-1.281 0.186-0.103-0.07-0.21-0.153-0.314-0.235-0.062 0.107-0.132 0.215-0.215 0.384-0.479-0.4-0.355-1.008-0.748-1.512 0.925-0.029 1.723-0.062 2.537-0.087 0.257 0.611 0.261 0.801 0.021 1.264zm22.884 62.251c-0.062 0.24-0.132 0.472-0.223 0.802-0.351 0.256-0.636 0.867-1.363 0.513-0.083 0.065-0.169 0.156-0.302 0.239-0.219-0.05-0.455-0.116-0.71-0.17-0.169-0.582-0.236-1.127-0.273-1.739 0.893-0.645 1.851-1.189 2.843-1.693-0.311 0.718-0.15 1.392 0.028 2.048zm3.231 0.736c-0.227-0.189-0.219-0.339-0.19-0.495 0.033-9e-3 0.074-0.017 0.116-9e-3 0.016 0.133 0.041 0.264 0.074 0.504zm-0.405-3.9c-0.161 0.462 0.017 0.917 0.066 1.363 0.054 0.471 0.14 0.934 0.215 1.421-0.149 0.083-0.236 0.124-0.335 0.174-0.083-0.182-0.169-0.331-0.252-0.479l-4e-3 -9e-3c-0.054-0.495-0.058-0.999-0.434-1.384-0.041-0.045-0.079-0.087-0.107-0.111-0.351 0.041-0.355 0.281-0.347 0.521 4e-3 0.293 8e-3 0.6 0.017 1.008-0.215-0.483-0.376-0.851-0.553-1.252-0.095 5e-3 -0.194 0.013-0.277 0.013-0.169-0.141-0.327-0.269-0.496-0.413 13.952-8.498 27.908-17.013 41.694-25.883 0.042 0.12 0.107 0.239 0.124 0.367 0.095 0.67 0.169 1.331 0.256 2 0.041 0.223 0.103 0.454 0.136 0.669 0.029 0.198 0.037 0.389 0.049 0.587-0.124 0.111-0.223 0.219-0.343 0.281-0.806 0.537-1.619 1.091-2.45 1.611-1.5 0.95-3.016 1.9-4.541 2.851-1.875 1.165-3.772 2.317-5.656 3.479-1.405 0.876-2.793 1.76-4.198 2.606-1.264 0.798-2.545 1.558-3.809 2.326-2.292 1.389-4.569 2.793-6.862 4.181-1.975 1.194-3.958 2.351-5.945 3.528-1.475 0.876-2.941 1.76-4.429 2.645-0.297 0.189-0.603 0.371-1.021 0.248-0.275-0.758-0.217-1.588-0.498-2.348zm4.726 3.405c-0.037-0.017-0.083-0.025-0.137-0.025 4e-3 -0.021 0-0.033 0-0.05 0.054-8e-3 0.104-0.016 0.153-0.032-3e-3 0.031-0.012 0.065-0.016 0.107zm16.645-2.413c-0.111-0.017-0.231-0.029-0.347-0.046 0-0.045 0-0.078 0.013-0.111 0.111 0.021 0.231 0.042 0.343 0.066-4e-3 0.033-0.012 0.053-9e-3 0.091zm0.711-0.091c-0.021-0.033-0.045-0.074-0.083-0.107 0.05 8e-3 0.091 0.017 0.128 0.024-0.012 0.025-0.029 0.049-0.045 0.083zm0.178-1.421c-0.496 0.107-1.016 0.215-1.574 0.326-4e-3 0.334-4e-3 0.582-8e-3 0.863-0.083 0.029-0.174 0.058-0.314 0.111 0.079 0.12 0.145 0.187 0.207 0.294-0.297 0.049-0.587 0.148-0.88 0.14-0.281-0.016-0.554-0.165-0.868-0.269 0.021 0.137 0.033 0.244 0.058 0.393-0.289 9e-3 -0.554 0.12-0.88 9e-3 0.079-0.091 0.128-0.174 0.19-0.215 1.31-0.802 2.611-1.604 3.925-2.4 0.231 0.235 0.234 0.45 0.144 0.748zm0.607 1.256c-0.045 0-0.087-9e-3 -0.128-9e-3 -4e-3 -0.017 0-0.037-4e-3 -0.054 0.054-4e-3 0.095-4e-3 0.145-4e-3 -5e-3 0.025-9e-3 0.041-0.013 0.067zm-0.368-2.149l8e-3 -0.033 0.033 0.024-0.041 9e-3zm0.467-0.133s-0.037-0.024-0.033-0.037c8e-3 -0.021 0.021-0.045 0.029-0.07 0.017 0.013 0.037 0.042 0.062 0.05-0.025 0.016-0.041 0.042-0.058 0.057zm0.599 2.137l-0.021-0.029h0.037l-0.016 0.029zm5.35-4.615c-0.14 0.422-0.136 0.835 0.157 1.157-0.083 0.289-0.153 0.512-0.219 0.752-0.272-0.798-0.107-1.661-0.471-2.426-0.021-0.028-0.087-0.037-0.203-0.103 0.017 1.016 0.273 1.949 0.334 2.883-0.276 0.355-0.583 0.496-1.004 0.405-0.091-0.223-0.165-0.43-0.26-0.669-0.306-9e-3 -0.611-0.05-0.892-0.017-0.628 0.095-1.252 0.223-1.876 0.339-0.363 0.058-0.723 0.107-1.065 0.156-0.178-0.28-0.062-0.434 0.107-0.545 0.236-0.157 0.471-0.339 0.728-0.438 0.615-0.244 1.103-0.69 1.665-1.021 0.913-0.542 1.81-1.104 2.723-1.665 0.05-0.033 0.12-0.042 0.178-0.059 0.033 0.017 0.066 0.042 0.091 0.059-0.261 0.407-0.133 0.788 7e-3 1.192zm1.897-2.479c0.14-0.07 0.281-0.124 0.417-0.198-0.046 0.289-0.215 0.28-0.417 0.198zm6.672-5.627c-0.954 0.169-1.929 0.297-2.892 0.458-0.186 0.029-0.368 0.087-0.512 0.116-0.293 0.393-0.017 0.78-0.161 1.202-0.149 0.037-0.322 0.107-0.5 0.132-0.641 0.107-1.272 0.194-1.9 0.298-0.182 0.024-0.364 0.095-0.57 0.148 0.033 0.558-0.037 1.058 0.116 1.562 0.095 0.348 0.062 0.731 0.083 1.12-0.351 0.228-0.673 0.458-1.012 0.624-0.351 0.182-0.723 0.28-0.992 0.384-0.322 0.289-0.553 0.55-0.843 0.731-1.483 0.9-2.975 1.813-4.466 2.702-0.215 0.132-0.475 0.198-0.723 0.306-0.091 0.033-0.169 0.099-0.272 0.173-0.107-0.578-0.215-1.165-0.334-1.739-0.24 0.318-0.087 0.641-0.062 0.95 0.033 0.335 0.083 0.665 0.124 1.046-1.698 1.069-3.4 2.065-5.123 3.016-0.19-0.058-0.339-0.1-0.504-0.157-0.372 0.05-0.459 0.372-0.587 0.653h-8e-3c-0.289-0.083-0.578-0.174-0.868-0.265-0.016 0.033-0.037 0.054-0.049 0.083 0.074 0.095 0.148 0.21 0.223 0.313-0.021 0.017-0.05 0.066-0.066 0.058-0.14-0.024-0.281-0.05-0.417-0.074-0.269-0.074-0.537-0.132-0.843-0.132-0.104-0.104-0.244-0.207-0.335-0.331-0.289-0.355-0.694-0.545-1.09-0.71-0.405-0.166-0.827-0.05-1.132 0.247-0.244 0.248-0.521 0.381-0.838 0.43-0.896 0.107-1.789 0.207-2.686 0.307-0.479 0.062-0.954 0.123-1.421 0.198-0.363 0.065-0.665 0.247-0.863 0.578-0.124 0.189-0.227 0.396-0.347 0.595-0.277 0.265-0.586 0.165-0.872 0.05-0.475 0.141-0.921 0.272-1.368 0.4-4e-3 0.017 0 0.033 0 0.05-0.207-0.013-0.417-0.025-0.652-0.037-0.256 0.256-0.562 0.396-0.955 0.281-0.099-0.025-0.24 0.032-0.355 0.062-0.165 0.024-0.334 0.054-0.533-0.021 0.132-0.083 0.281-0.182 0.434-0.277-0.012-0.235-0.017-0.467-0.024-0.73 0.153-0.12 0.318-0.248 0.5-0.359 2.231-1.335 4.475-2.665 6.697-4.028 1.599-0.95 3.168-1.95 4.755-2.917 2.285-1.393 4.586-2.76 6.867-4.152 2.607-1.582 5.193-3.197 7.792-4.796 2.091-1.298 4.198-2.578 6.296-3.867 0.463-0.294 0.917-0.604 1.384-0.893 0.645-0.4 1.302-0.785 1.942-1.198 0.645-0.4 1.285-0.817 1.925-1.23 0.103-0.059 0.207-0.116 0.318-0.157 0.236 0.471 1.083 6.49 1.058 7.54-0.425 0.359-0.9 0.756-1.359 1.136-0.421-0.041-0.814-0.074-1.219-0.132-0.245 0.08-0.497 0.204-0.761 0.253zm1.991 1.153c-0.045-0.202-0.058-0.404-0.095-0.641 0.343-0.578 0.901-0.945 1.475-1.38 0.07 0.166 0.124 0.273 0.14 0.389 0.087 0.471 0.141 0.946 0.219 1.421 0.099 0.525 0.194 1.066 0.293 1.657-0.368 0.376-0.855 0.641-1.441 0.913-0.1-0.24-0.231-0.396-0.219-0.554 0.066-0.644-0.248-1.206-0.372-1.805zm2.455 4.466c-0.492 0.157-0.996 0.306-1.566 0.496-0.112-0.298-0.203-0.545-0.285-0.785 0.025-0.182 0.07-0.355 0.095-0.537-0.083-0.206-0.169-0.417-0.248-0.603 0.269-0.372 1.053-0.893 1.62-1.083 0.193 0.347 0.437 1.942 0.384 2.512zm-55.452-10.618c1.458-0.934 2.925-1.867 4.396-2.801 1.756-1.116 3.52-2.239 5.284-3.376 0.992-0.645 1.979-1.31 2.975-1.954 1.347-0.888 2.706-1.76 4.065-2.636 0.95-0.636 1.917-1.269 2.879-1.9 1.393-0.909 2.797-1.801 4.189-2.723 1.145-0.739 2.272-1.516 3.413-2.264 1.743-1.152 3.491-2.302 5.238-3.45 1.165-0.769 2.33-1.553 3.491-2.338 2.446-1.628 4.887-3.272 7.341-4.908 1.054-0.711 2.124-1.396 3.169-2.124 0.81-0.569 1.586-1.197 2.38-1.784 0.107-0.091 0.223-0.17 0.351-0.256 0.409 0.438 0.128 0.975 0.297 1.429 0.157 0.488 0.198 1.017 0.281 1.513 0.07 0.491 0.136 0.983 0.203 1.475-0.194 0.153-0.327 0.285-0.492 0.393-1.434 1.008-2.855 2.041-4.309 3.016-1.541 1.05-3.107 2.05-4.668 3.065-1.062 0.702-2.124 1.413-3.193 2.111-1.591 1.054-3.194 2.095-4.792 3.145-1.343 0.875-2.669 1.76-4.003 2.627-1.368 0.893-2.731 1.769-4.106 2.652-1.186 0.785-2.372 1.558-3.57 2.322-1.619 1.041-3.247 2.099-4.862 3.144-1.318 0.847-2.624 1.682-3.946 2.517-1.913 1.223-3.826 2.438-5.742 3.651-1.376 0.876-2.748 1.756-4.119 2.636-0.797 0.504-1.595 1-2.4 1.496-0.099 0.05-0.219 0.074-0.417 0.157-0.252-1.339-0.483-2.599-0.723-3.9 0.485-0.323 0.931-0.633 1.39-0.935zm0.095 9.461c-0.207-1.186-0.421-2.363-0.636-3.558-0.029-0.186-0.058-0.384-0.091-0.599 0.219-0.174 0.4-0.331 0.607-0.471 1.157-0.728 2.314-1.438 3.466-2.174 1.393-0.892 2.776-1.772 4.168-2.66 0.896-0.566 1.806-1.128 2.702-1.694 1.074-0.686 2.152-1.375 3.223-2.057 1.512-0.972 3.016-1.934 4.523-2.904 0.876-0.566 1.744-1.145 2.632-1.715 1.586-1.024 3.189-2.041 4.78-3.074 0.996-0.645 1.975-1.31 2.97-1.958 1.207-0.785 2.413-1.554 3.619-2.33 1-0.652 1.987-1.297 2.991-1.95 1.574-1.049 3.173-2.082 4.755-3.123 0.661-0.438 1.318-0.893 1.983-1.33 2.652-1.728 5.263-3.487 7.829-5.321 0.091-0.058 0.211-0.116 0.355-0.19 0.05 0.111 0.079 0.165 0.087 0.224 0.235 1.784 0.479 3.569 0.71 5.37 0.045 0.306 0.095 0.62 0.141 0.942 0.025 0.165 0.029 0.351 0.049 0.578-0.351 0.256-0.702 0.529-1.062 0.765-0.884 0.599-1.772 1.177-2.652 1.756-1.76 1.165-3.52 2.33-5.288 3.486-1.285 0.843-2.574 1.686-3.871 2.528-2.045 1.335-4.107 2.661-6.16 4-1.384 0.884-2.764 1.784-4.148 2.669-2.008 1.28-4.011 2.549-6.015 3.825-2.157 1.372-4.301 2.743-6.458 4.106-1.396 0.884-2.805 1.752-4.197 2.619-2.375 1.476-4.743 2.971-7.123 4.445-0.967 0.604-1.934 1.207-2.892 1.798-0.148 0.086-0.314 0.152-0.529 0.26-0.099-0.339-0.207-0.611-0.256-0.9-0.088-0.453-0.138-0.909-0.212-1.363zm0.574 2.595c0.116-0.083 0.244-0.207 0.393-0.281 2.599-1.632 5.206-3.256 7.804-4.867 1.78-1.107 3.569-2.189 5.337-3.305 1.558-0.979 3.111-1.975 4.668-2.958 1.541-0.983 3.078-1.946 4.623-2.934 1.421-0.909 2.834-1.81 4.247-2.719 1.215-0.784 2.417-1.553 3.624-2.33 1.099-0.71 2.21-1.421 3.309-2.132 1.367-0.884 2.731-1.764 4.103-2.66 1.251-0.802 2.495-1.619 3.73-2.441 1.983-1.289 3.958-2.57 5.924-3.867 0.669-0.446 1.322-0.954 1.975-1.434 0.157-0.107 0.322-0.207 0.521-0.339 0.066 0.132 0.14 0.224 0.153 0.298 0.182 1.215 0.351 2.429 0.524 3.636 8e-3 0.058-8e-3 0.115-0.017 0.239-0.173 0.132-0.405 0.313-0.628 0.471-1.008 0.645-2.024 1.306-3.028 1.959-1.917 1.247-3.826 2.512-5.742 3.751-1.74 1.132-3.483 2.251-5.23 3.362-2.049 1.302-4.103 2.595-6.156 3.888-1.269 0.806-2.549 1.616-3.817 2.426-1.062 0.661-2.128 1.33-3.194 2.008-1.475 0.917-2.941 1.843-4.42 2.76-1.562 0.958-3.131 1.929-4.702 2.9-1.487 0.925-2.979 1.851-4.474 2.768-1.434 0.889-2.875 1.76-4.313 2.636-1.281 0.785-2.57 1.558-3.854 2.351-0.248 0.137-0.496 0.269-0.765 0.435-0.227-0.453-0.636-3.026-0.595-3.621zm1.669 10.188c-0.281-1.578-0.558-3.177-0.834-4.76-0.079-0.454-0.132-0.908-0.215-1.438 0.083-0.049 0.186-0.165 0.31-0.248 2.09-1.28 4.197-2.528 6.279-3.809 2.037-1.256 4.062-2.524 6.094-3.784 1.843-1.137 3.689-2.256 5.528-3.388 1.537-0.959 3.057-1.934 4.594-2.9 1.086-0.678 2.189-1.367 3.28-2.058 1.549-0.975 3.09-1.95 4.64-2.917 1.318-0.826 2.632-1.669 3.941-2.512 1.359-0.859 2.718-1.735 4.082-2.595 1.719-1.106 3.438-2.189 5.156-3.297 0.925-0.595 1.834-1.198 2.76-1.797 1.148-0.756 2.309-1.508 3.47-2.264 0.062-0.037 0.124-0.054 0.264-0.116 0.496 2.426 0.649 4.83 1 7.201-0.351 0.417-0.801 0.653-1.202 0.917-0.789 0.554-1.599 1.066-2.388 1.587-1.367 0.876-2.751 1.768-4.123 2.644-1.338 0.859-2.689 1.711-4.036 2.554-1.653 1.041-3.317 2.065-4.966 3.09-1.851 1.157-3.702 2.313-5.549 3.471-1.76 1.091-3.536 2.152-5.3 3.243-2.024 1.247-4.045 2.508-6.065 3.747-1.326 0.806-2.673 1.603-3.999 2.413-2.297 1.38-4.59 2.755-6.887 4.135-0.103 0.066-0.215 0.107-0.351 0.183-0.302-0.546-0.153-1.194-0.479-1.843-0.115 0.441 8e-3 0.756 0.038 1.065 0.037 0.318 0.083 0.624 0.128 0.983-1.661 1.013-3.301 1.962-5.02 2.929-0.067-0.181-0.125-0.305-0.15-0.436zm1.368 0.252c-4e-3 -0.024-0.013-0.037-0.029-0.07 0.049-0.017 0.091-0.041 0.14-0.062 4e-3 0.012 0.021 0.028 0.029 0.054-0.041 0.024-0.086 0.053-0.14 0.078zm1.103-0.186c-0.223 0.074-0.421 0.049-0.628-0.133 0.078-0.065 0.145-0.141 0.223-0.189 0.843-0.533 1.677-1.041 2.524-1.566 0.182-0.111 0.364-0.202 0.624-0.326 0.054 0.62 0.099 1.174 0.145 1.743-0.165 0.059-0.297 0.133-0.434 0.141-0.554 0.066-1.116 0.107-1.682 0.165-0.268 0.032-0.52 0.091-0.772 0.165z" fill="#77776F"/>
</svg>
